<mxfile host="app.diagrams.net" modified="2024-05-23T08:09:02.429Z" agent="Mozilla/5.0 (Windows NT 10.0; Win64; x64) AppleWebKit/537.36 (KHTML, like Gecko) Chrome/124.0.0.0 Safari/537.36" etag="eN7Jla8FuGR7TGXBmUx7" version="24.4.6" type="github">
  <diagram name="Page-1" id="e7e014a7-5840-1c2e-5031-d8a46d1fe8dd">
    <mxGraphModel dx="1278" dy="800" grid="1" gridSize="10" guides="1" tooltips="1" connect="1" arrows="1" fold="1" page="1" pageScale="1" pageWidth="1169" pageHeight="826" background="none" math="0" shadow="0">
      <root>
        <mxCell id="0" />
        <mxCell id="1" parent="0" />
        <mxCell id="2" value="套题-逻辑可视化" style="swimlane;whiteSpace=wrap" parent="1" vertex="1">
          <mxGeometry x="164" y="128" width="280" height="570" as="geometry">
            <mxRectangle x="164" y="128" width="130" height="30" as="alternateBounds" />
          </mxGeometry>
        </mxCell>
        <mxCell id="7" value="Q1" style="" parent="2" vertex="1">
          <mxGeometry x="60" y="130" width="90" height="30" as="geometry" />
        </mxCell>
        <mxCell id="8" value="Q2(选中)&#xa;选项1&#xa;选项2" style="align=left;fillColor=#dae8fc;strokeColor=#6c8ebf;" parent="2" vertex="1">
          <mxGeometry x="60" y="220" width="190" height="60" as="geometry" />
        </mxCell>
        <mxCell id="9" value="" style="endArrow=open;strokeColor=#FF0000;endFill=1;rounded=0;entryX=0.25;entryY=0;entryDx=0;entryDy=0;exitX=0.5;exitY=1;exitDx=0;exitDy=0;" parent="2" source="7" target="8" edge="1">
          <mxGeometry relative="1" as="geometry">
            <mxPoint x="108" y="182" as="sourcePoint" />
          </mxGeometry>
        </mxCell>
        <mxCell id="MSC8bMfVmx7t9PHExw0h-48" style="edgeStyle=orthogonalEdgeStyle;rounded=0;orthogonalLoop=1;jettySize=auto;html=1;entryX=0.5;entryY=0;entryDx=0;entryDy=0;" edge="1" parent="2" source="10" target="MSC8bMfVmx7t9PHExw0h-47">
          <mxGeometry relative="1" as="geometry" />
        </mxCell>
        <mxCell id="MSC8bMfVmx7t9PHExw0h-53" style="edgeStyle=orthogonalEdgeStyle;rounded=0;orthogonalLoop=1;jettySize=auto;html=1;entryX=0.5;entryY=0;entryDx=0;entryDy=0;" edge="1" parent="2" source="10" target="MSC8bMfVmx7t9PHExw0h-51">
          <mxGeometry relative="1" as="geometry" />
        </mxCell>
        <mxCell id="10" value="Q3" style="" parent="2" vertex="1">
          <mxGeometry x="60" y="325" width="90" height="45" as="geometry" />
        </mxCell>
        <mxCell id="11" value="" style="endArrow=open;strokeColor=#FF0000;endFill=1;rounded=0;entryX=0.5;entryY=0;entryDx=0;entryDy=0;" parent="2" target="10" edge="1">
          <mxGeometry relative="1" as="geometry">
            <mxPoint x="106" y="282" as="sourcePoint" />
            <mxPoint x="102.5" y="325" as="targetPoint" />
          </mxGeometry>
        </mxCell>
        <mxCell id="MSC8bMfVmx7t9PHExw0h-47" value="Q4" style="" vertex="1" parent="2">
          <mxGeometry x="26" y="422" width="90" height="50" as="geometry" />
        </mxCell>
        <mxCell id="MSC8bMfVmx7t9PHExw0h-51" value="Q5" style="" vertex="1" parent="2">
          <mxGeometry x="126" y="422" width="90" height="50" as="geometry" />
        </mxCell>
        <mxCell id="3" value="Q3Q4Q5逻辑块" style="swimlane;whiteSpace=wrap" parent="1" vertex="1">
          <mxGeometry x="444.5" y="128" width="280" height="570" as="geometry">
            <mxRectangle x="444.5" y="128" width="120" height="30" as="alternateBounds" />
          </mxGeometry>
        </mxCell>
        <mxCell id="MSC8bMfVmx7t9PHExw0h-54" style="edgeStyle=orthogonalEdgeStyle;rounded=0;orthogonalLoop=1;jettySize=auto;html=1;entryX=0.5;entryY=0;entryDx=0;entryDy=0;" edge="1" parent="3" source="MSC8bMfVmx7t9PHExw0h-56">
          <mxGeometry relative="1" as="geometry">
            <mxPoint x="66.5" y="279" as="targetPoint" />
          </mxGeometry>
        </mxCell>
        <mxCell id="MSC8bMfVmx7t9PHExw0h-55" style="edgeStyle=orthogonalEdgeStyle;rounded=0;orthogonalLoop=1;jettySize=auto;html=1;entryX=0.5;entryY=0;entryDx=0;entryDy=0;" edge="1" parent="3" source="MSC8bMfVmx7t9PHExw0h-56" target="MSC8bMfVmx7t9PHExw0h-57">
          <mxGeometry relative="1" as="geometry" />
        </mxCell>
        <mxCell id="MSC8bMfVmx7t9PHExw0h-56" value="Q3" style="" vertex="1" parent="3">
          <mxGeometry x="65.5" y="182" width="90" height="45" as="geometry" />
        </mxCell>
        <mxCell id="MSC8bMfVmx7t9PHExw0h-57" value="Q5" style="" vertex="1" parent="3">
          <mxGeometry x="131.5" y="279" width="90" height="50" as="geometry" />
        </mxCell>
        <mxCell id="MSC8bMfVmx7t9PHExw0h-58" value="Q4" style="" vertex="1" parent="3">
          <mxGeometry x="15.5" y="279" width="90" height="50" as="geometry" />
        </mxCell>
        <mxCell id="4" value="Thread 3" style="swimlane;whiteSpace=wrap" parent="1" vertex="1">
          <mxGeometry x="724.5" y="128" width="280" height="570" as="geometry" />
        </mxCell>
      </root>
    </mxGraphModel>
  </diagram>
</mxfile>
